# Blender 4.1.1
# www.blender.org
mtllib glob.mtl
o Icosphere
v 0.000000 -0.935398 0.000000
v 0.676861 -0.418328 0.491762
v -0.258533 -0.418328 0.795695
v -0.836644 -0.418324 0.000000
v -0.258533 -0.418328 -0.795695
v 0.676861 -0.418328 -0.491762
v 0.258533 0.418328 0.795695
v -0.676861 0.418328 0.491762
v -0.676861 0.418328 -0.491762
v 0.258533 0.418328 -0.795695
v 0.836644 0.418324 0.000000
v 0.000000 0.935398 0.000000
v -0.217781 -0.615042 0.670271
v -0.151961 -0.795700 0.467694
v -0.072593 -0.905418 0.223422
v 0.190055 -0.905418 0.138081
v 0.397846 -0.795700 0.289048
v 0.570168 -0.615042 0.414247
v 0.497576 -0.469852 0.637672
v -0.027725 -0.469852 0.808356
v 0.760225 -0.469851 -0.276165
v 0.795694 -0.491772 0.000000
v 0.760225 -0.469851 0.276165
v 0.190055 -0.905418 -0.138081
v 0.397846 -0.795700 -0.289048
v 0.570168 -0.615042 -0.414247
v -0.704768 -0.615038 0.000000
v -0.491766 -0.795698 0.000000
v -0.234922 -0.905417 0.000000
v -0.452706 -0.469852 0.670273
v -0.643731 -0.491772 0.467696
v -0.777363 -0.469849 0.223423
v -0.217781 -0.615042 -0.670271
v -0.151961 -0.795700 -0.467694
v -0.072593 -0.905418 -0.223422
v -0.777363 -0.469849 -0.223423
v -0.643731 -0.491772 -0.467696
v -0.452706 -0.469852 -0.670273
v -0.027725 -0.469852 -0.808356
v 0.245887 -0.491774 -0.756748
v 0.497576 -0.469852 -0.637672
v 0.894825 0.234925 0.138082
v 0.889617 -0.000000 0.289050
v 0.805094 -0.234926 0.414248
v 0.805094 -0.234926 -0.414248
v 0.889617 0.000000 -0.289050
v 0.894825 0.234925 -0.138082
v 0.145188 0.234927 0.893699
v 0.000000 -0.000000 0.935398
v -0.145188 -0.234927 0.893699
v 0.642766 -0.234927 0.637675
v 0.549813 0.000000 0.756752
v 0.407840 0.234927 0.808359
v -0.805094 0.234926 0.414248
v -0.889617 -0.000000 0.289050
v -0.894825 -0.234925 0.138082
v -0.407840 -0.234927 0.808359
v -0.549813 0.000000 0.756752
v -0.642766 0.234927 0.637675
v -0.642766 0.234927 -0.637675
v -0.549813 -0.000000 -0.756752
v -0.407840 -0.234927 -0.808359
v -0.894825 -0.234925 -0.138082
v -0.889617 0.000000 -0.289050
v -0.805094 0.234926 -0.414248
v 0.407840 0.234927 -0.808359
v 0.549813 -0.000000 -0.756752
v 0.642766 -0.234927 -0.637675
v -0.145188 -0.234927 -0.893699
v 0.000000 0.000000 -0.935398
v 0.145188 0.234927 -0.893699
v 0.777363 0.469849 0.223423
v 0.643731 0.491772 0.467696
v 0.452706 0.469852 0.670273
v 0.027725 0.469852 0.808356
v -0.245887 0.491774 0.756748
v -0.497576 0.469852 0.637672
v -0.760225 0.469851 0.276165
v -0.795694 0.491772 0.000000
v -0.760225 0.469851 -0.276165
v -0.497576 0.469852 -0.637672
v -0.245887 0.491774 -0.756748
v 0.027725 0.469852 -0.808356
v 0.452706 0.469852 -0.670273
v 0.643731 0.491772 -0.467696
v 0.777363 0.469849 -0.223423
v 0.072593 0.905418 0.223422
v 0.151961 0.795700 0.467694
v 0.217781 0.615042 0.670271
v 0.704768 0.615038 0.000000
v 0.491766 0.795698 0.000000
v 0.234922 0.905417 0.000000
v -0.190055 0.905418 0.138081
v -0.397846 0.795700 0.289048
v -0.570168 0.615042 0.414247
v -0.190055 0.905418 -0.138081
v -0.397846 0.795700 -0.289048
v -0.570168 0.615042 -0.414247
v 0.072593 0.905418 -0.223422
v 0.151961 0.795700 -0.467694
v 0.217781 0.615042 -0.670271
v 0.338427 0.836647 -0.245881
v 0.596965 0.676863 -0.245882
v 0.418318 0.676865 -0.491765
v -0.129269 0.836648 -0.397843
v -0.049379 0.676865 -0.643726
v -0.338430 0.676865 -0.549807
v -0.418319 0.836647 0.000000
v -0.627480 0.676864 -0.151962
v -0.627480 0.676864 0.151962
v -0.129269 0.836648 0.397843
v -0.338430 0.676865 0.549807
v -0.049379 0.676865 0.643726
v 0.338427 0.836647 0.245881
v 0.418318 0.676865 0.491765
v 0.596965 0.676863 0.245882
v 0.806130 0.258540 -0.397845
v 0.756755 0.000000 -0.549810
v 0.627484 0.258541 -0.643730
v -0.129271 0.258541 -0.889615
v -0.289053 -0.000000 -0.889616
v -0.418324 0.258541 -0.795695
v -0.886021 0.258540 -0.151962
v -0.935398 0.000001 0.000000
v -0.886021 0.258541 0.151963
v -0.418325 0.258541 0.795694
v -0.289054 -0.000001 0.889616
v -0.129271 0.258541 0.889615
v 0.627484 0.258540 0.643731
v 0.756754 -0.000002 0.549811
v 0.806129 0.258539 0.397846
v 0.289054 -0.000000 -0.889616
v 0.418324 -0.258542 -0.795694
v 0.129271 -0.258542 -0.889614
v -0.756754 -0.000000 -0.549811
v -0.627482 -0.258541 -0.643732
v -0.806129 -0.258540 -0.397847
v -0.756754 0.000000 0.549811
v -0.806129 -0.258540 0.397847
v -0.627482 -0.258541 0.643732
v 0.289054 0.000000 0.889616
v 0.129271 -0.258542 0.889614
v 0.935398 0.000000 0.000000
v 0.886021 -0.258540 0.151962
v 0.886021 -0.258540 -0.151962
v 0.338430 -0.676865 -0.549807
v 0.129269 -0.836647 -0.397845
v 0.049379 -0.676864 -0.643728
v -0.418320 -0.676864 -0.491764
v -0.338428 -0.836647 -0.245881
v -0.596966 -0.676863 -0.245881
v -0.596966 -0.676862 0.245882
v -0.338428 -0.836646 0.245883
v -0.418320 -0.676863 0.491765
v 0.627481 -0.676864 -0.151962
v 0.627481 -0.676863 0.151963
v 0.418320 -0.836646 0.000001
v 0.049380 -0.676865 0.643727
v 0.129271 -0.836647 0.397844
v 0.338431 -0.676864 0.549807
v 0.667379 -0.407647 0.469839
v 0.488095 -0.459171 0.615749
v 0.236406 -0.481093 0.734825
v -0.037206 -0.459171 0.786433
v 0.633285 -0.224246 0.615752
v 0.540332 0.010681 0.734829
v 0.279573 0.010681 0.867693
v 0.408843 -0.247861 0.773771
v 0.119790 -0.247860 0.867692
v 0.039899 -0.666184 0.621804
v 0.328950 -0.666183 0.527884
vn 0.4911 0.7947 -0.3568
vn 0.7261 0.5955 -0.3438
vn -0.1876 0.7947 -0.5773
vn -0.4674 0.7594 -0.4526
vn -0.3702 0.9158 -0.1560
vn -0.3702 0.9158 0.1560
vn -0.6071 0.7947 -0.0000
vn -0.4674 0.7594 0.4526
vn 0.0339 0.9158 0.4003
vn -0.1876 0.7947 0.5773
vn 0.2860 0.7594 0.5843
vn 0.4911 0.7947 0.3568
vn 0.7261 0.5955 0.3438
vn 0.8883 -0.0784 -0.4526
vn 0.7947 0.1876 -0.5773
vn 0.6291 0.4399 -0.6409
vn 0.7049 -0.0784 -0.7049
vn -0.1560 -0.0784 -0.9846
vn -0.3035 0.1876 -0.9342
vn -0.4526 -0.0784 -0.8883
vn -0.9846 -0.0784 -0.1560
vn -0.9822 0.1876 -0.0000
vn -0.9846 -0.0784 0.1560
vn -0.4526 -0.0784 0.8883
vn -0.3035 0.1876 0.9342
vn -0.1560 -0.0784 0.9846
vn 0.7049 -0.0784 0.7049
vn 0.6291 0.4399 0.6409
vn 0.7947 0.1876 0.5773
vn 0.8883 -0.0784 0.4526
vn 0.4526 0.0784 -0.8883
vn 0.1560 0.0784 -0.9846
vn 0.3035 -0.1876 -0.9342
vn -0.7049 0.0784 -0.7049
vn -0.8883 0.0784 -0.4526
vn -0.7947 -0.1876 -0.5774
vn -0.6291 -0.4399 -0.6409
vn -0.8883 0.0784 0.4526
vn -0.7049 0.0784 0.7049
vn -0.7947 -0.1876 0.5774
vn -0.6291 -0.4399 0.6409
vn 0.1560 0.0784 0.9846
vn 0.4526 0.0784 0.8883
vn -0.1856 -0.9126 -0.3643
vn -0.8838 -0.4358 0.1699
vn 0.9846 0.0784 0.1560
vn 0.9846 0.0784 -0.1560
vn 0.9822 -0.1876 -0.0000
vn 0.8857 -0.4399 0.1487
vn 0.1876 -0.7947 -0.5773
vn -0.4911 -0.7947 -0.3568
vn -0.7261 -0.5955 -0.3438
vn -0.7261 -0.5955 0.3438
vn -0.4911 -0.7947 0.3568
vn 0.7895 -0.5955 -0.1487
vn 0.6071 -0.7947 -0.0000
vn 0.8773 0.4530 -0.1587
vn 0.1876 -0.7947 0.5773
vn 0.4866 0.3718 -0.7906
vn -0.1859 -0.9732 -0.1350
vn 0.7707 -0.3743 -0.5157
vn 0.7164 -0.6015 -0.3535
vn 0.5576 -0.6015 -0.5721
vn 0.8584 -0.3718 -0.3535
vn -0.0710 -0.3718 0.9256
vn -0.8584 0.3718 -0.3535
vn -0.4866 -0.3718 0.7906
vn 0.5576 -0.6015 0.5721
vn -0.7874 0.2298 0.5721
vn 0.3007 0.2298 0.9256
vn 0.0818 -0.1340 -0.9876
vn 0.3007 0.2298 -0.9256
vn -0.2298 0.9732 -0.0000
vn 0.3717 0.6015 0.7071
vn 0.4866 0.3718 0.7906
vn -0.1859 -0.9732 0.1350
vn 0.1149 0.6015 0.7906
vn -0.3007 -0.2298 0.9256
vn -0.3717 -0.6015 0.7071
vn -0.4588 -0.8774 0.1400
vn 0.1214 0.9196 -0.3736
vn -0.1214 -0.9196 0.3736
vn -0.7809 -0.4001 -0.4796
vn 0.5784 0.6383 0.5080
vn -0.7164 0.6015 -0.3535
vn -0.0710 0.9732 -0.2185
vn -0.2889 0.8774 -0.3830
vn 0.5143 -0.1340 -0.8471
vn -0.1693 0.6383 -0.7509
vn -0.8411 0.5198 0.1493
vn 0.0710 -0.9732 -0.2185
vn 0.2298 -0.9732 -0.0000
vn -0.5784 -0.6383 0.5080
vn 0.3866 -0.8028 0.4539
vn 0.7665 -0.6383 0.0710
vn -0.1149 -0.6015 -0.7906
vn -0.4866 -0.3718 -0.7906
vn 0.6467 0.1340 -0.7509
vn -0.2889 0.8774 0.3830
vn -0.0459 -0.8028 0.5945
vn -0.1149 -0.6015 0.7906
vn 0.1859 0.9732 0.1350
vn -0.1693 0.6383 0.7509
vn -0.5784 -0.6383 -0.5080
vn -0.7665 0.6383 -0.0710
vn 0.7874 0.6015 0.1350
vn -0.9023 -0.3718 0.2185
vn 0.7809 0.4001 -0.4796
vn 0.5784 0.6383 -0.5080
vn -0.6467 -0.1340 -0.7509
vn 0.7874 -0.2298 0.5721
vn 0.0710 0.3718 0.9256
vn -0.9104 -0.3477 0.2243
vn 0.0818 -0.1340 0.9876
vn -0.6467 -0.1340 0.7509
vn 0.0710 -0.9732 0.2185
vn 0.7164 -0.6015 0.3535
vn 0.5512 -0.8028 0.2274
vn -0.9140 -0.1340 -0.3830
vn 0.9137 -0.4001 -0.0710
vn 0.8584 -0.3718 0.3535
vn -0.6015 0.3718 -0.7071
vn -0.6468 -0.7626 -0.0000
vn -0.2148 0.4001 0.8909
vn -0.9137 0.4001 -0.0710
vn 0.9023 0.3718 0.2185
vn -0.7874 -0.6015 -0.1350
vn 0.3178 -0.9196 0.2309
vn 0.9645 -0.1340 -0.2274
vn 0.3123 0.8028 -0.5080
vn -0.8584 0.3718 0.3535
vn -0.9732 -0.2298 -0.0000
vn -0.5143 0.1340 -0.8471
vn -0.0818 0.1340 -0.9876
vn -0.4019 0.5198 0.7538
vn -0.0818 0.1340 0.9876
vn 0.9023 0.3718 -0.2185
vn 0.7874 0.6015 -0.1350
vn -0.5143 0.1340 0.8471
vn 0.7809 0.4001 0.4796
vn 0.3866 -0.8028 -0.4539
vn -0.9023 -0.3718 -0.2185
vn -0.7874 0.2298 -0.5721
vn -0.3123 -0.8028 0.5080
vn 0.6467 0.1340 0.7509
vn -0.7809 -0.4001 0.4796
vn 0.1149 0.6015 -0.7906
vn 0.9732 0.2298 -0.0000
vn 0.2148 -0.4001 -0.8909
vn 0.0459 0.8028 0.5945
vn -0.9645 0.1340 0.2274
vn -0.3717 -0.6015 -0.7071
vn -0.2148 0.4001 -0.8909
vn -0.9645 0.1340 -0.2274
vn 0.9140 0.1340 -0.3830
vn -0.9140 -0.1340 0.3830
vn 0.1859 0.9732 -0.1350
vn -0.5576 0.6015 -0.5721
vn 0.1266 0.9122 0.3897
vn -0.1214 -0.9196 -0.3736
vn -0.4588 -0.8774 -0.1400
vn 0.4019 -0.5198 -0.7538
vn -0.0459 -0.8028 -0.5945
vn -0.0710 0.9732 0.2185
vn 0.6015 -0.3718 -0.7071
vn -0.5512 0.8028 -0.2274
vn 0.9140 0.1340 0.3830
vn 0.0459 0.8028 -0.5945
vn 0.6468 0.7626 -0.0000
vn 0.7874 -0.2298 -0.5721
vn -0.7874 -0.6015 0.1350
vn 0.2749 0.8774 0.3931
vn 0.4588 0.8774 -0.1400
vn -0.4019 0.5198 -0.7538
vn 0.9645 -0.1340 0.2274
vn 0.3717 0.6015 -0.7071
vn -0.7164 0.6015 0.3535
vn -0.5512 0.8028 0.2274
vn -0.3123 -0.8028 -0.5080
vn 0.5512 -0.8028 -0.2274
vn 0.3178 -0.9196 -0.2309
vn -0.3007 -0.2298 -0.9256
vn -0.5576 0.6015 0.5721
vn 0.1693 -0.6383 -0.7509
vn -0.7710 0.3739 0.5156
vn 0.4588 0.8774 0.1400
vn -0.6015 0.3718 0.7071
vn -0.0710 -0.3718 -0.9256
vn 0.0710 0.3718 -0.9256
vn 0.3035 -0.1876 0.9342
vn 0.4151 -0.4399 0.7964
vn 0.1026 -0.5955 0.7968
vn 0.6015 -0.3718 0.7071
vn 0.2148 -0.4001 0.8909
vn 0.3044 -0.6383 0.7070
vn 0.5143 -0.1340 0.8471
vn 0.7217 -0.4460 -0.5294
vn 0.0733 0.9087 0.4110
vt 0.431819 0.354286
vt 0.477273 0.354286
vt 0.454546 0.393651
vt 0.409091 0.314921
vt 0.454546 0.314921
vt 0.613637 0.354286
vt 0.659091 0.354286
vt 0.636364 0.393651
vt 0.704546 0.354286
vt 0.681818 0.393651
vt 0.772727 0.393651
vt 0.818182 0.393651
vt 0.795455 0.433017
vt 0.863636 0.393651
vt 0.840909 0.433017
vt 0.795455 0.354286
vt 0.840909 0.354286
vt 0.022727 0.354286
vt 0.068182 0.354286
vt 0.045455 0.393651
vt 0.090910 0.393651
vt 0.136365 0.393651
vt 0.113637 0.433017
vt 0.113637 0.354286
vt 0.204546 0.354286
vt 0.250001 0.354286
vt 0.227273 0.393651
vt 0.295455 0.354286
vt 0.272728 0.393651
vt 0.272728 0.314921
vt 0.318182 0.314921
vt 0.431819 0.196826
vt 0.454546 0.236191
vt 0.409091 0.236191
vt 0.477273 0.275556
vt 0.431819 0.275556
vt 0.500000 0.314921
vt 0.477273 0.196826
vt 0.500000 0.236191
vt 0.613637 0.196826
vt 0.636364 0.236191
vt 0.590909 0.236191
vt 0.659091 0.275556
vt 0.613637 0.275556
vt 0.659091 0.196826
vt 0.681818 0.236191
vt 0.795455 0.196826
vt 0.818182 0.236191
vt 0.772727 0.236191
vt 0.840909 0.275556
vt 0.795455 0.275556
vt 0.840909 0.196826
vt 0.863636 0.236191
vt 0.068182 0.196826
vt 0.090910 0.236191
vt 0.045455 0.236191
vt 0.113637 0.275556
vt 0.068182 0.275556
vt 0.113637 0.196826
vt 0.136364 0.236191
vt 0.250001 0.196826
vt 0.272728 0.236191
vt 0.227273 0.236191
vt 0.250001 0.275556
vt 0.227273 0.314921
vt 0.295455 0.275556
vt 0.295455 0.196826
vt 0.318182 0.236191
vt 0.545455 0.236191
vt 0.522728 0.275556
vt 0.568182 0.275556
vt 0.522728 0.196826
vt 0.568182 0.196826
vt 0.727273 0.236191
vt 0.704546 0.275556
vt 0.750000 0.275556
vt 0.704546 0.196826
vt 0.750000 0.196826
vt 0.681818 0.157461
vt 0.727273 0.157461
vt 0.909091 0.236191
vt 0.886364 0.275556
vt 0.954545 0.236191
vt 0.931818 0.275556
vt 0.886364 0.196826
vt 0.931818 0.196826
vt 0.909091 0.157461
vt 0.954545 0.157461
vt 0.181819 0.236191
vt 0.159092 0.275556
vt 0.204546 0.275556
vt 0.363637 0.236191
vt 0.340910 0.275556
vt 0.386364 0.275556
vt 0.340910 0.196826
vt 0.386364 0.196826
vt 0.318182 0.157461
vt 0.363637 0.157461
vt 0.545455 0.078731
vt 0.568182 0.118096
vt 0.522728 0.118096
vt 0.727273 0.078731
vt 0.750000 0.118096
vt 0.704546 0.118096
vt 0.772727 0.157461
vt 0.886364 0.118096
vt 0.863636 0.157461
vt 0.909091 0.078731
vt 0.931818 0.118096
vt 0.386364 0.118096
vt 0.409092 0.157461
vt 0.340910 0.118096
vt 0.363637 0.078730
vt 0.136364 0.157461
vt 0.159092 0.118096
vt 0.181819 0.078731
vt 0.204546 0.118096
vt 0.545455 0.314921
vt 0.704546 0.039365
vt 0.727273 0.000000
vt 0.750000 0.039365
vt 0.159092 0.196826
vt 0.431819 0.118096
vt 0.454546 0.157461
vt 0.500000 0.157461
vt 0.477273 0.118096
vt 0.090910 0.157461
vt 0.772727 0.314921
vt 0.727273 0.314921
vt 0.977273 0.196826
vt 1.000000 0.157461
vt 0.227274 0.157461
vt 0.250001 0.118096
vt 0.272728 0.157461
vt 0.909091 0.314921
vt 0.181819 0.314921
vt 0.818182 0.472382
vt 0.886364 0.039365
vt 0.909091 0.000000
vt 0.931818 0.039365
vt 0.159092 0.354286
vt 0.136364 0.314921
vt 0.977273 0.118096
vt 0.863636 0.078731
vt 0.477273 0.433017
vt 0.590909 0.393651
vt 0.954545 0.078731
vt 0.159092 0.039365
vt 0.750000 0.354286
vt 0.659091 0.433017
vt 0.636364 0.472382
vt 0.613637 0.433017
vt 0.590909 0.314921
vt 0.636364 0.314921
vt 0.818182 0.314921
vt 0.863636 0.314921
vt 0.522728 0.039365
vt 0.545455 0.000000
vt 0.568182 0.039365
vt 0.386364 0.039365
vt 0.340910 0.039365
vt 0.363637 0.000000
vt 0.227273 0.078731
vt 0.590909 0.157461
vt 0.613637 0.118096
vt 0.636364 0.157461
vt 0.068182 0.433017
vt 0.113637 0.118096
vt 0.136365 0.078731
vt 0.295455 0.433017
vt 0.272728 0.472382
vt 0.250001 0.433017
vt 0.090909 0.314921
vt 0.340910 0.354286
vt 0.363637 0.314921
vt 0.818182 0.157461
vt 0.181819 0.000000
vt 0.204546 0.039365
vt 0.295455 0.118096
vt 0.318182 0.078731
vt 0.681818 0.314921
vt 0.795455 0.118096
vt 0.500000 0.393651
vt 0.522728 0.354286
vt 0.045455 0.314921
vt 0.386364 0.354286
vt 0.022727 0.275556
vt 0.500000 0.078731
vt 0.568182 0.354286
vt 0.545455 0.157461
vt 0.659091 0.118096
vt 0.454546 0.472382
vt 0.431819 0.433017
vt 0.590909 0.078731
vt 0.772727 0.078731
vt 0.090910 0.472382
vt 0.318182 0.393651
vt 0.840909 0.118096
vt 0.409091 0.393651
vt 0.886364 0.354286
vt 0.681818 0.078731
vt 0.409091 0.078731
vt 0.000000 0.314921
vt 0.204546 0.196826
vt 0.181819 0.157461
s 0
usemtl Material.001
f 103/1/1 104/2/1 102/3/1
f 86/4/2 85/5/2 103/1/2
f 106/6/3 107/7/3 105/8/3
f 107/7/4 98/9/4 97/10/4
f 97/11/5 108/12/5 96/13/5
f 108/12/6 94/14/6 93/15/6
f 109/16/7 110/17/7 108/12/7
f 95/18/8 112/19/8 94/20/8
f 111/21/9 88/22/9 87/23/9
f 112/19/10 113/24/10 111/21/10
f 89/25/11 115/26/11 88/27/11
f 115/26/12 116/28/12 114/29/12
f 73/30/13 72/31/13 116/28/13
f 45/32/14 118/33/14 46/34/14
f 118/33/15 119/35/15 117/36/15
f 119/35/16 84/37/16 85/5/16
f 68/38/17 67/39/17 118/33/17
f 69/40/18 121/41/18 70/42/18
f 121/41/19 122/43/19 120/44/19
f 62/45/20 61/46/20 121/41/20
f 63/47/21 124/48/21 64/49/21
f 124/48/22 125/50/22 123/51/22
f 56/52/23 55/53/23 124/48/23
f 57/54/24 127/55/24 58/56/24
f 127/55/25 128/57/25 126/58/25
f 50/59/26 49/60/26 127/55/26
f 51/61/27 130/62/27 52/63/27
f 129/64/28 73/30/28 74/65/28
f 130/62/29 131/66/29 129/64/29
f 44/67/30 43/68/30 130/62/30
f 67/39/31 132/69/31 66/70/31
f 132/69/32 70/42/32 71/71/32
f 133/72/33 134/73/33 132/69/33
f 61/46/34 135/74/34 60/75/34
f 135/74/35 64/49/35 65/76/35
f 136/77/36 137/78/36 135/74/36
f 38/79/37 37/80/37 136/77/37
f 55/53/38 138/81/38 54/82/38
f 138/81/39 58/83/39 59/84/39
f 139/85/40 140/86/40 138/81/40
f 31/87/41 30/88/41 140/86/41
f 49/60/42 141/89/42 48/90/42
f 141/89/43 52/63/43 53/91/43
f 52/63/44 141/89/44 167/89/44 166/63/44
f 51/61/45 52/63/45 166/63/45 165/61/45
f 43/68/46 143/92/46 42/93/46
f 143/92/47 46/34/47 47/94/47
f 144/95/48 145/96/48 143/92/48
f 23/97/49 22/98/49 144/95/49
f 147/99/50 148/100/50 146/101/50
f 150/102/51 151/103/51 149/104/51
f 151/103/52 36/105/52 37/80/52
f 152/106/53 31/87/53 32/107/53
f 153/108/54 154/109/54 152/106/54
f 22/98/55 155/110/55 21/111/55
f 156/112/56 157/113/56 155/110/56
f 20/114/57 158/115/57 170/115/57 164/114/57
f 159/116/58 160/117/58 158/115/58
f 84/37/59 119/35/59 66/70/59 10/118/59
f 35/119/60 1/120/60 29/121/60 150/102/60
f 142/122/61 20/114/61 164/114/61 169/122/61
f 26/123/62 6/124/62 21/111/62 155/110/62
f 41/125/63 6/124/63 26/126/63 146/101/63
f 45/32/64 145/96/64 21/111/64 6/124/64
f 50/59/65 3/127/65 20/114/65 142/122/65
f 80/128/66 9/129/66 65/76/66 123/51/66
f 57/130/67 140/86/67 30/88/67 3/131/67
f 19/132/68 160/117/68 18/133/68 2/134/68
f 59/84/69 8/135/69 54/82/69 138/81/69
f 53/91/70 7/136/70 48/90/70 141/89/70
f 70/42/71 132/69/71 134/73/71 69/40/71
f 71/71/72 10/118/72 66/70/72 132/69/72
f 93/15/73 12/137/73 96/13/73 108/12/73
f 89/25/74 7/136/74 74/65/74 115/26/74
f 74/65/75 7/136/75 53/91/75 129/64/75
f 29/138/76 1/139/76 15/140/76 153/108/76
f 89/141/77 113/24/77 75/142/77 7/136/77
f 57/54/78 3/127/78 50/59/78 127/55/78
f 30/88/79 154/109/79 13/143/79 3/131/79
f 28/144/80 29/138/80 153/108/80 152/106/80
f 99/145/81 102/3/81 100/146/81 105/8/81
f 14/147/82 153/108/82 15/148/82 159/116/82
f 137/78/83 136/77/83 37/80/83 36/105/83
f 115/26/84 74/65/84 73/30/84 116/28/84
f 98/149/85 9/129/85 80/128/85 109/16/85
f 96/150/86 12/151/86 99/152/86 105/8/86
f 97/10/87 96/150/87 105/8/87 107/7/87
f 67/39/88 68/38/88 133/72/88 132/69/88
f 106/6/89 83/153/89 82/154/89 107/7/89
f 79/155/90 125/50/90 78/156/90 110/17/90
f 24/157/91 1/158/91 35/159/91 147/99/91
f 24/160/92 157/113/92 16/161/92 1/162/92
f 31/87/93 152/106/93 154/109/93 30/88/93
f 160/117/94 159/116/94 17/163/94 18/133/94
f 22/98/95 23/97/95 156/112/95 155/110/95
f 39/164/96 148/100/96 33/165/96 5/166/96
f 62/45/97 5/166/97 38/79/97 136/77/97
f 119/35/98 118/33/98 67/39/98 66/70/98
f 111/21/99 93/167/99 94/20/99 112/19/99
f 158/115/100 13/168/100 14/169/100 159/116/100
f 20/114/101 3/127/101 13/168/101 158/115/101
f 92/170/102 12/171/102 87/172/102 114/29/102
f 113/24/103 112/19/103 76/173/103 75/142/103
f 37/80/104 38/79/104 149/104/104 151/103/104
f 109/16/105 80/128/105 79/155/105 110/17/105
f 90/174/106 116/28/106 72/31/106 11/175/106
f 56/52/107 4/176/107 32/107/107 139/85/107
f 85/5/108 86/4/108 117/36/108 119/35/108
f 104/2/109 103/1/109 85/5/109 84/37/109
f 61/46/110 62/45/110 136/77/110 135/74/110
f 51/61/111 2/134/111 44/67/111 130/62/111
f 75/142/112 128/57/112 48/90/112 7/136/112
f 2/134/113 51/61/113 165/61/113 161/134/113
f 49/60/114 50/59/114 142/122/114 141/89/114
f 58/83/115 138/81/115 140/86/115 57/130/115
f 15/148/116 1/177/116 16/178/116 159/116/116
f 23/97/117 2/134/117 18/179/117 156/112/117
f 156/112/118 18/179/118 17/180/118 157/113/118
f 64/49/119 135/74/119 137/78/119 63/47/119
f 145/96/120 144/95/120 22/98/120 21/111/120
f 44/67/121 2/134/121 23/97/121 144/95/121
f 81/181/122 122/43/122 60/75/122 9/129/122
f 27/182/123 151/103/123 28/144/123 152/106/123
f 76/173/124 126/58/124 128/57/124 75/142/124
f 79/155/125 80/128/125 123/51/125 125/50/125
f 72/31/126 131/66/126 42/93/126 11/175/126
f 36/105/127 151/103/127 27/182/127 4/176/127
f 16/161/128 157/113/128 17/163/128 159/116/128
f 46/34/129 143/92/129 145/96/129 45/32/129
f 100/183/130 102/3/130 104/2/130 101/184/130
f 78/156/131 125/50/131 54/82/131 8/135/131
f 63/47/132 4/176/132 56/52/132 124/48/132
f 122/43/133 121/41/133 61/46/133 60/75/133
f 120/44/134 71/71/134 70/42/134 121/41/134
f 77/185/135 126/58/135 76/173/135 112/19/135
f 128/57/136 127/55/136 49/60/136 48/90/136
f 86/4/137 11/175/137 47/94/137 117/36/137
f 90/186/138 11/175/138 86/4/138 103/1/138
f 126/58/139 59/187/139 58/56/139 127/55/139
f 73/30/140 129/64/140 131/66/140 72/31/140
f 146/101/141 26/126/141 25/188/141 147/99/141
f 63/47/142 137/78/142 36/105/142 4/176/142
f 65/76/143 9/129/143 60/75/143 135/74/143
f 154/109/144 153/108/144 14/147/144 13/143/144
f 129/64/145 53/91/145 52/63/145 130/62/145
f 139/85/146 32/107/146 31/87/146 140/86/146
f 101/189/147 10/118/147 83/153/147 106/6/147
f 47/94/148 11/175/148 42/93/148 143/92/148
f 134/73/149 133/72/149 40/190/149 39/164/149
f 88/22/150 111/21/150 113/24/150 89/141/150
f 125/50/151 124/48/151 55/53/151 54/82/151
f 38/79/152 5/166/152 33/191/152 149/104/152
f 82/154/153 83/153/153 120/44/153 122/43/153
f 123/51/154 65/76/154 64/49/154 124/48/154
f 117/36/155 47/94/155 46/34/155 118/33/155
f 55/53/156 56/52/156 139/85/156 138/81/156
f 99/145/157 12/192/157 92/193/157 102/3/157
f 98/9/158 107/7/158 81/181/158 9/129/158
f 158/115/159 160/117/159 171/117/159 170/115/159
f 34/194/160 147/99/160 35/119/160 150/102/160
f 150/102/161 29/121/161 28/195/161 151/103/161
f 41/125/162 146/101/162 40/190/162 133/72/162
f 148/100/163 147/99/163 34/194/163 33/165/163
f 87/23/164 12/196/164 93/167/164 111/21/164
f 68/38/165 6/124/165 41/125/165 133/72/165
f 97/11/166 98/149/166 109/16/166 108/12/166
f 131/66/167 130/62/167 43/68/167 42/93/167
f 100/146/168 101/189/168 106/6/168 105/8/168
f 91/197/169 116/28/169 90/186/169 103/1/169
f 45/32/170 6/124/170 68/38/170 118/33/170
f 32/107/171 4/176/171 27/198/171 152/106/171
f 114/29/172 87/172/172 88/27/172 115/26/172
f 102/3/173 92/193/173 91/199/173 103/1/173
f 82/154/174 122/43/174 81/181/174 107/7/174
f 43/68/175 44/67/175 144/95/175 143/92/175
f 101/184/176 104/2/176 84/37/176 10/118/176
f 95/200/177 110/17/177 78/156/177 8/135/177
f 94/14/178 108/12/178 110/17/178 95/200/178
f 149/104/179 33/191/179 34/201/179 150/102/179
f 25/202/180 26/123/180 155/110/180 157/113/180
f 25/202/181 157/113/181 24/157/181 147/99/181
f 69/40/182 5/166/182 62/45/182 121/41/182
f 95/18/183 8/203/183 77/185/183 112/19/183
f 40/190/184 146/101/184 148/100/184 39/164/184
f 160/117/185 19/132/185 162/132/185 171/117/185
f 91/197/186 92/170/186 114/29/186 116/28/186
f 77/185/187 8/203/187 59/187/187 126/58/187
f 69/40/188 134/73/188 39/164/188 5/166/188
f 83/153/189 10/118/189 71/71/189 120/44/189
f 141/89/197 142/122/197 169/122/197 167/89/197
f 19/132/198 2/134/198 161/134/198 162/132/198
usemtl Material.006
f 169/122/190 168/204/190 167/89/190
f 163/205/191 162/132/191 168/204/191
f 170/115/192 163/205/192 164/114/192
f 165/61/193 168/204/193 162/132/193 161/134/193
f 169/122/194 164/114/194 163/205/194 168/204/194
f 163/205/195 170/115/195 171/117/195 162/132/195
f 166/63/196 167/89/196 168/204/196 165/61/196
